<?xml version="1.0" standalone="no"?>
<!DOCTYPE svg PUBLIC "-//W3C//DTD SVG 20010904//EN"
 "http://www.w3.org/TR/2001/REC-SVG-20010904/DTD/svg10.dtd">
<svg version="1.0" xmlns="http://www.w3.org/2000/svg"
 width="260.000000pt" height="260.000000pt" viewBox="0 0 260.000000 260.000000"
 preserveAspectRatio="xMidYMid meet">
<metadata>
Created by potrace 1.11, written by Peter Selinger 2001-2013
</metadata>
<g transform="translate(0.000000,260.000000) scale(0.100000,-0.100000)"
fill="#000000" stroke="none">
<path d="M1134 2582 c4 -3 14 -7 22 -8 9 -1 13 0 10 4 -4 3 -14 7 -22 8 -9 1
-13 0 -10 -4z"/>
<path d="M1333 2575 c0 -8 4 -12 9 -9 5 3 6 10 3 15 -9 13 -12 11 -12 -6z"/>
<path d="M1436 2578 c3 -5 10 -6 15 -3 13 9 11 12 -6 12 -8 0 -12 -4 -9 -9z"/>
<path d="M1229 2563 c-13 -16 -12 -17 4 -4 9 7 17 15 17 17 0 8 -8 3 -21 -13z"/>
<path d="M919 2553 c-13 -16 -12 -17 4 -4 9 7 17 15 17 17 0 8 -8 3 -21 -13z"/>
<path d="M1036 2562 c-3 -5 1 -9 9 -9 8 0 12 4 9 9 -3 4 -7 8 -9 8 -2 0 -6 -4
-9 -8z"/>
<path d="M1197 2548 c19 -21 31 -25 14 -5 -6 8 -9 16 -6 19 3 2 -2 5 -10 5
-13 0 -13 -3 2 -19z"/>
<path d="M1306 2538 c3 -5 10 -6 15 -3 13 9 11 12 -6 12 -8 0 -12 -4 -9 -9z"/>
<path d="M1175 2530 c4 -12 -3 -16 -25 -18 -23 -2 -30 1 -25 10 4 7 1 6 -7 -2
-14 -16 -24 -19 -71 -25 -15 -2 -32 -7 -38 -10 -5 -4 -17 -1 -25 6 -12 10 -13
9 -8 -7 4 -10 4 -16 -1 -12 -4 4 -23 1 -42 -7 -19 -8 -37 -14 -41 -13 -4 1
-29 -9 -57 -21 -61 -28 -69 -29 -70 -14 0 6 -3 15 -7 18 -4 4 -5 -5 -2 -20 4
-22 2 -26 -11 -21 -9 3 -13 2 -10 -4 3 -6 -1 -10 -9 -10 -9 0 -16 -5 -16 -10
0 -6 -3 -9 -7 -8 -5 1 -27 -10 -50 -25 -45 -29 -58 -33 -48 -17 3 6 1 10 -5
10 -7 0 -9 -8 -5 -22 6 -17 4 -20 -9 -15 -10 4 -15 3 -11 -3 3 -5 -5 -15 -19
-22 -14 -6 -26 -15 -26 -21 0 -5 -7 -7 -14 -4 -10 4 -13 1 -9 -9 4 -11 -1 -14
-21 -10 -15 3 -24 1 -21 -5 4 -5 12 -6 18 -3 7 4 -3 -9 -22 -29 -19 -20 -38
-34 -42 -31 -5 3 -6 -3 -2 -12 4 -11 2 -15 -4 -11 -5 3 -16 -4 -23 -18 -8 -15
-18 -21 -28 -18 -10 4 -13 2 -8 -5 8 -14 -63 -108 -78 -104 -6 2 -8 0 -4 -4 4
-4 -7 -34 -25 -66 -26 -47 -36 -58 -52 -54 -18 5 -18 4 -3 -8 16 -12 16 -14
-2 -43 -10 -17 -16 -34 -13 -37 3 -3 -1 -8 -10 -12 -9 -3 -13 -12 -11 -19 3
-7 0 -24 -7 -37 -7 -13 -13 -26 -14 -30 0 -3 -3 -9 -7 -13 -4 -4 -4 -13 -2
-20 3 -7 1 -16 -5 -19 -6 -4 -8 -13 -4 -21 3 -8 1 -15 -5 -15 -6 0 -8 -9 -5
-20 3 -11 0 -20 -6 -20 -6 0 -10 -6 -8 -12 1 -8 -7 -13 -19 -12 -11 1 -21 -5
-21 -12 0 -7 5 -10 11 -6 22 14 38 11 31 -6 -4 -9 -8 -36 -9 -59 -1 -22 -8
-49 -16 -59 -8 -10 -10 -15 -4 -11 7 4 14 0 18 -8 3 -8 -3 -19 -12 -24 -9 -6
-12 -11 -5 -11 7 0 12 -11 11 -25 -1 -14 -7 -24 -14 -21 -6 2 -11 -2 -11 -9 0
-7 6 -11 12 -8 7 2 15 -7 17 -21 3 -14 1 -23 -3 -20 -5 3 -9 1 -9 -5 0 -5 5
-13 10 -16 8 -5 7 -11 -1 -21 -8 -10 -8 -14 0 -14 6 0 11 -7 11 -16 0 -11 -5
-14 -18 -9 -12 4 -11 0 6 -15 13 -12 22 -32 21 -43 -1 -12 1 -30 5 -39 14 -40
15 -47 2 -42 -7 3 -13 -2 -13 -10 0 -8 6 -12 13 -9 6 2 15 0 19 -6 5 -10 -6
-15 -26 -13 -3 1 -6 -6 -6 -13 0 -11 4 -12 14 -3 17 13 17 14 36 -44 11 -35
12 -48 4 -52 -7 -2 -6 -5 3 -5 9 -1 22 -18 29 -38 8 -21 20 -46 28 -55 9 -10
13 -27 10 -39 -3 -11 -3 -18 0 -15 8 8 33 -21 33 -39 0 -9 4 -13 10 -10 6 3
10 -3 10 -14 0 -12 4 -21 8 -21 5 0 24 -21 42 -47 19 -27 38 -49 42 -51 4 -2
8 -7 8 -12 0 -5 27 -35 60 -68 33 -32 57 -62 53 -66 -4 -4 0 -4 10 0 12 4 17
1 17 -10 0 -9 5 -16 11 -16 19 0 99 -63 100 -79 0 -10 2 -11 6 -4 3 9 11 8 31
-5 15 -9 29 -19 32 -23 3 -3 20 -12 37 -20 25 -11 32 -18 27 -34 -4 -17 -4
-18 6 -3 10 16 14 15 63 -6 28 -13 64 -26 80 -30 15 -3 27 -10 27 -15 0 -5 9
-7 20 -4 11 3 20 1 20 -5 0 -5 11 -10 25 -11 51 -3 55 -5 53 -20 -4 -21 43
-24 59 -5 9 12 13 12 19 3 4 -7 2 -15 -4 -17 -14 -4 -16 -22 -3 -22 5 0 13 9
16 20 6 20 35 29 35 10 0 -5 10 -14 23 -20 20 -10 21 -10 4 3 -11 9 -14 18 -8
21 5 4 13 2 16 -4 5 -8 12 -7 23 2 9 7 13 8 9 2 -7 -13 120 -14 141 -1 7 5 12
3 12 -4 0 -8 5 -7 17 2 9 8 14 9 10 3 -6 -11 6 -21 28 -22 5 0 13 -9 17 -19 7
-16 8 -16 5 2 -1 11 -9 20 -16 20 -8 0 -16 5 -18 12 -2 6 4 10 14 9 10 -2 22
2 26 8 6 7 7 4 3 -6 -3 -10 -1 -18 4 -18 6 0 10 6 10 13 0 7 10 14 23 15 12 1
31 3 41 5 13 1 22 -6 28 -23 7 -21 7 -21 3 7 -4 29 -2 31 23 28 15 -2 30 2 33
7 4 5 18 11 33 11 14 1 26 6 26 10 0 5 5 5 11 1 8 -5 4 -13 -12 -26 -18 -14
-19 -17 -4 -9 11 5 29 17 40 26 17 14 17 16 3 11 -10 -3 -18 -1 -18 4 0 6 7
10 15 10 8 0 30 9 50 20 19 11 35 17 35 14 0 -4 7 -1 15 6 10 9 15 9 15 1 0
-6 4 -11 10 -11 5 0 7 8 4 18 -5 14 -3 14 11 -3 12 -14 16 -16 15 -5 -4 27 0
41 8 36 5 -3 18 3 28 13 11 9 26 15 33 13 8 -3 11 0 7 6 -3 6 4 14 16 18 12 3
30 16 41 28 19 21 19 16 1 -29 -4 -9 -1 -15 7 -15 7 0 10 3 6 6 -12 13 21 62
77 114 79 73 156 157 156 171 0 4 10 11 21 14 17 6 19 9 8 16 -8 5 -9 9 -3 9
6 0 17 11 24 25 8 15 19 23 27 20 36 -14 45 -15 21 -1 l-26 16 27 50 c16 28
38 58 50 66 12 9 19 19 16 24 -3 4 1 10 9 13 15 6 29 47 15 47 -5 0 -9 -9 -9
-19 0 -10 -7 -22 -16 -25 -8 -3 -13 -10 -10 -15 3 -5 -1 -11 -8 -14 -10 -4 -7
9 10 44 l25 49 30 -15 c16 -9 29 -13 29 -11 0 3 -13 12 -30 21 -32 17 -37 28
-17 44 27 22 62 55 47 45 -38 -27 -40 -26 -34 13 8 50 12 55 35 43 11 -6 19
-7 19 -2 0 6 -9 12 -20 15 -14 4 -18 10 -14 22 6 15 8 27 13 73 0 7 9 12 18
10 25 -4 28 28 4 58 -13 17 -18 32 -13 43 4 9 7 36 6 61 -1 31 4 49 15 57 14
10 14 14 2 25 -12 11 -13 10 -8 -4 8 -22 -8 -24 -17 -3 -3 8 2 19 12 24 15 9
15 10 -3 11 -19 1 -19 2 3 17 12 8 22 20 22 25 0 5 -7 2 -16 -7 -9 -9 -19 -13
-23 -9 -3 4 0 9 7 11 6 3 12 9 12 14 0 6 -4 8 -9 5 -11 -7 -20 26 -16 59 1 14
-1 25 -5 25 -10 0 -7 26 3 36 10 11 8 24 -4 24 -5 0 -7 -4 -4 -10 3 -5 1 -10
-5 -10 -7 0 -10 6 -7 14 3 7 0 19 -6 25 -9 10 -7 16 8 28 16 12 16 14 3 10
-27 -9 -40 23 -20 48 14 16 14 17 1 7 -9 -6 -19 -9 -22 -5 -4 3 0 11 7 17 10
8 11 17 5 31 -9 19 -9 18 -5 -2 5 -27 -12 -31 -20 -5 -4 9 -19 43 -36 75 -16
31 -26 62 -23 67 3 6 -2 10 -12 10 -15 0 -16 2 -3 10 13 8 13 10 -1 10 -9 0
-22 12 -30 28 -8 15 -24 38 -36 52 -13 14 -23 29 -23 34 0 5 -11 19 -25 32
-14 13 -25 28 -25 34 0 6 -4 8 -10 5 -5 -3 -10 -1 -10 4 0 6 -11 21 -25 33
-13 11 -22 26 -18 31 3 6 1 7 -6 3 -6 -4 -13 -1 -16 6 -3 8 -23 25 -45 38 -22
14 -40 31 -40 38 0 7 -4 10 -10 7 -5 -3 -10 -1 -10 4 0 6 -6 11 -14 11 -7 0
-19 7 -26 15 -7 9 -27 22 -45 31 -18 8 -42 24 -53 35 -12 11 -24 19 -27 18
-16 -3 -64 25 -58 34 3 6 1 7 -6 3 -6 -4 -18 -2 -26 4 -8 7 -15 9 -15 6 0 -4
-9 -2 -20 4 -11 6 -18 15 -15 21 4 5 1 9 -4 9 -6 0 -11 -4 -11 -10 0 -5 -5
-10 -11 -10 -5 0 -8 4 -5 9 3 5 0 9 -7 8 -48 -1 -67 4 -68 21 0 9 -3 12 -5 6
-4 -11 -42 -9 -74 3 -8 3 -35 8 -60 10 -25 3 -46 9 -48 14 -2 5 -8 9 -13 9 -6
0 -8 -4 -5 -9 7 -11 -13 -9 -31 2 -8 5 -13 3 -13 -3 0 -6 -5 -8 -12 -4 -16 10
-128 13 -128 3 0 -12 -35 -4 -48 11 -11 13 -11 13 -7 0z m1365 -1370 c0 -13
-5 -17 -14 -14 -12 4 -13 15 -7 42 3 12 21 -13 21 -28z m-1446 -1069 c3 -5 -5
-8 -19 -8 -14 0 -22 3 -19 8 3 5 11 9 19 9 8 0 16 -4 19 -9z"/>
<path d="M1775 2531 c-3 -5 -2 -12 3 -15 5 -3 9 1 9 9 0 17 -3 19 -12 6z"/>
<path d="M960 2515 c-7 -9 -11 -17 -9 -20 3 -2 10 5 17 15 14 24 10 26 -8 5z"/>
<path d="M1050 2518 c0 -4 4 -8 9 -8 6 0 12 4 15 8 3 5 -1 9 -9 9 -8 0 -15 -4
-15 -9z"/>
<path d="M1496 2518 c3 -4 11 -5 19 -1 21 7 19 12 -4 10 -11 0 -18 -5 -15 -9z"/>
<path d="M1556 2512 c-2 -4 4 -8 14 -8 10 0 16 4 14 8 -3 4 -9 8 -14 8 -5 0
-11 -4 -14 -8z"/>
<path d="M806 2502 c-3 -5 1 -9 9 -9 8 0 12 4 9 9 -3 4 -7 8 -9 8 -2 0 -6 -4
-9 -8z"/>
<path d="M856 2502 c-2 -4 -1 -14 4 -22 7 -11 9 -9 7 8 -1 24 -3 26 -11 14z"/>
<path d="M1675 2501 c-3 -5 -2 -12 3 -15 5 -3 9 1 9 9 0 17 -3 19 -12 6z"/>
<path d="M1730 2500 c0 -5 5 -10 11 -10 5 0 7 5 4 10 -3 6 -8 10 -11 10 -2 0
-4 -4 -4 -10z"/>
<path d="M889 2483 c-13 -16 -12 -17 4 -4 9 7 17 15 17 17 0 8 -8 3 -21 -13z"/>
<path d="M1635 2490 c-3 -6 1 -7 9 -4 18 7 21 14 7 14 -6 0 -13 -4 -16 -10z"/>
<path d="M1795 2480 c3 -5 8 -10 11 -10 2 0 4 5 4 10 0 6 -5 10 -11 10 -5 0
-7 -4 -4 -10z"/>
<path d="M830 2476 c0 -2 8 -10 18 -17 15 -13 16 -12 3 4 -13 16 -21 21 -21
13z"/>
<path d="M716 2422 c-3 -5 1 -9 9 -9 8 0 12 4 9 9 -3 4 -7 8 -9 8 -2 0 -6 -4
-9 -8z"/>
<path d="M1820 2425 c0 -2 6 -8 13 -14 10 -8 14 -7 14 2 0 8 -6 14 -14 14 -7
0 -13 -1 -13 -2z"/>
<path d="M1899 2393 c-13 -16 -12 -17 4 -4 9 7 17 15 17 17 0 8 -8 3 -21 -13z"/>
<path d="M1936 2372 c-2 -4 -1 -14 4 -22 7 -11 9 -9 7 8 -1 24 -3 26 -11 14z"/>
<path d="M1980 2324 c0 -1 8 -8 17 -15 9 -8 14 -9 10 -2 -4 6 -1 13 5 16 7 3
3 4 -9 4 -13 -1 -23 -2 -23 -3z"/>
<path d="M2035 2311 c-3 -5 -2 -12 3 -15 5 -3 9 1 9 9 0 17 -3 19 -12 6z"/>
<path d="M2065 2300 c-3 -6 1 -7 9 -4 18 7 21 14 7 14 -6 0 -13 -4 -16 -10z"/>
<path d="M495 2281 c-3 -5 -2 -12 3 -15 5 -3 9 1 9 9 0 17 -3 19 -12 6z"/>
<path d="M2146 2282 c-3 -5 1 -9 9 -9 8 0 15 4 15 9 0 4 -4 8 -9 8 -6 0 -12
-4 -15 -8z"/>
<path d="M2066 2258 c3 -5 10 -6 15 -3 13 9 11 12 -6 12 -8 0 -12 -4 -9 -9z"/>
<path d="M2100 2265 c0 -2 6 -8 13 -14 10 -8 14 -7 14 2 0 8 -6 14 -14 14 -7
0 -13 -1 -13 -2z"/>
<path d="M435 2241 c-3 -5 -2 -12 3 -15 5 -3 9 1 9 9 0 17 -3 19 -12 6z"/>
<path d="M2136 2233 c-6 -14 -5 -15 5 -6 7 7 10 15 7 18 -3 3 -9 -2 -12 -12z"/>
<path d="M436 2195 c-9 -26 -7 -32 5 -12 6 10 9 21 6 23 -2 3 -7 -2 -11 -11z"/>
<path d="M376 2181 c-3 -4 6 -7 19 -7 14 0 22 2 19 5 -8 8 -34 10 -38 2z"/>
<path d="M336 2138 c3 -5 10 -6 15 -3 13 9 11 12 -6 12 -8 0 -12 -4 -9 -9z"/>
<path d="M261 2076 c-9 -11 -9 -16 0 -22 7 -4 9 -3 5 4 -3 6 2 15 11 21 10 6
13 11 7 11 -6 0 -17 -6 -23 -14z"/>
<path d="M2299 2073 c-13 -16 -12 -17 4 -4 9 7 17 15 17 17 0 8 -8 3 -21 -13z"/>
<path d="M2280 2041 c0 -5 7 -12 16 -15 14 -5 15 -4 4 9 -14 17 -20 19 -20 6z"/>
<path d="M2370 2019 c0 -5 5 -7 10 -4 6 3 10 8 10 11 0 2 -4 4 -10 4 -5 0 -10
-5 -10 -11z"/>
<path d="M275 2010 c3 -5 8 -10 11 -10 2 0 4 5 4 10 0 6 -5 10 -11 10 -5 0 -7
-4 -4 -10z"/>
<path d="M2315 2000 c3 -5 8 -10 11 -10 2 0 4 5 4 10 0 6 -5 10 -11 10 -5 0
-7 -4 -4 -10z"/>
<path d="M215 1980 c-3 -5 -1 -10 4 -10 6 0 11 5 11 10 0 6 -2 10 -4 10 -3 0
-8 -4 -11 -10z"/>
<path d="M2335 1979 c-4 -6 -4 -13 -1 -16 3 -4 6 -1 6 6 0 7 5 9 12 5 7 -4 8
-3 4 4 -9 15 -13 15 -21 1z"/>
<path d="M210 1936 c0 -2 8 -10 18 -17 15 -13 16 -12 3 4 -13 16 -21 21 -21
13z"/>
<path d="M190 1923 c0 -6 8 -17 18 -24 16 -13 16 -13 2 6 -8 11 -16 22 -17 24
-2 2 -3 0 -3 -6z"/>
<path d="M2380 1925 c0 -2 6 -8 13 -14 10 -8 14 -7 14 2 0 8 -6 14 -14 14 -7
0 -13 -1 -13 -2z"/>
<path d="M2430 1880 c0 -5 5 -10 11 -10 5 0 7 5 4 10 -3 6 -8 10 -11 10 -2 0
-4 -4 -4 -10z"/>
<path d="M2396 1857 c3 -10 9 -15 12 -12 3 3 0 11 -7 18 -10 9 -11 8 -5 -6z"/>
<path d="M2455 1840 c3 -5 8 -10 11 -10 2 0 4 5 4 10 0 6 -5 10 -11 10 -5 0
-7 -4 -4 -10z"/>
<path d="M2416 1817 c3 -10 9 -15 12 -12 3 3 0 11 -7 18 -10 9 -11 8 -5 -6z"/>
<path d="M2490 1820 c0 -5 5 -10 11 -10 5 0 7 5 4 10 -3 6 -8 10 -11 10 -2 0
-4 -4 -4 -10z"/>
<path d="M2476 1759 c4 -8 30 -6 38 2 3 3 -5 5 -19 5 -13 0 -22 -3 -19 -7z"/>
<path d="M2526 1742 c-3 -5 1 -9 9 -9 8 0 12 4 9 9 -3 4 -7 8 -9 8 -2 0 -6 -4
-9 -8z"/>
<path d="M67 1719 c7 -7 15 -10 18 -7 3 3 -2 9 -12 12 -14 6 -15 5 -6 -5z"/>
<path d="M2466 1688 c3 -4 11 -5 19 -1 21 7 19 12 -4 10 -11 0 -18 -5 -15 -9z"/>
<path d="M99 1673 c-13 -16 -12 -17 4 -4 9 7 17 15 17 17 0 8 -8 3 -21 -13z"/>
<path d="M2516 1667 c3 -10 9 -15 12 -12 3 3 0 11 -7 18 -10 9 -11 8 -5 -6z"/>
<path d="M50 1660 c0 -5 5 -10 11 -10 5 0 7 5 4 10 -3 6 -8 10 -11 10 -2 0 -4
-4 -4 -10z"/>
<path d="M2490 1639 c0 -5 5 -7 10 -4 6 3 10 8 10 11 0 2 -4 4 -10 4 -5 0 -10
-5 -10 -11z"/>
<path d="M70 1636 c0 -2 8 -10 18 -17 15 -13 16 -12 3 4 -13 16 -21 21 -21 13z"/>
<path d="M2516 1632 c-2 -4 4 -8 14 -8 10 0 16 4 14 8 -3 4 -9 8 -14 8 -5 0
-11 -4 -14 -8z"/>
<path d="M2510 1570 c0 -6 7 -13 15 -16 8 -4 12 -11 8 -17 -3 -6 -1 -7 5 -3
15 9 15 9 -8 29 -11 9 -20 12 -20 7z"/>
<path d="M2559 1535 c-1 -3 -2 -13 -3 -22 -1 -10 -4 -23 -8 -29 -4 -6 -2 -11
5 -11 8 0 13 14 13 34 0 29 -4 43 -7 28z"/>
<path d="M2513 1515 c0 -7 6 -11 14 -8 7 3 13 6 13 8 0 2 -6 5 -13 8 -8 3 -14
-1 -14 -8z"/>
<path d="M6 1502 c-3 -5 1 -9 9 -9 8 0 12 4 9 9 -3 4 -7 8 -9 8 -2 0 -6 -4 -9
-8z"/>
<path d="M62 1440 c0 -14 2 -19 5 -12 2 6 2 18 0 25 -3 6 -5 1 -5 -13z"/>
<path d="M33 1435 c0 -8 4 -12 9 -9 5 3 6 10 3 15 -9 13 -12 11 -12 -6z"/>
<path d="M2555 1429 c-4 -6 -5 -12 -2 -15 2 -3 7 2 10 11 7 17 1 20 -8 4z"/>
<path d="M2571 1413 c-1 -17 16 -25 25 -12 4 7 3 9 -4 5 -5 -3 -13 0 -15 6 -4
9 -6 10 -6 1z"/>
<path d="M35 1400 c-3 -5 -1 -10 4 -10 6 0 11 5 11 10 0 6 -2 10 -4 10 -3 0
-8 -4 -11 -10z"/>
<path d="M35 1371 c-3 -5 -2 -12 3 -15 5 -3 9 1 9 9 0 17 -3 19 -12 6z"/>
<path d="M2545 1335 c-9 -20 -14 -39 -11 -42 3 -3 8 3 11 13 4 10 11 27 16 37
6 11 8 21 6 23 -2 3 -12 -12 -22 -31z"/>
<path d="M2571 1333 c-1 -17 16 -25 25 -12 4 7 3 9 -4 5 -5 -3 -13 0 -15 6 -4
9 -6 10 -6 1z"/>
<path d="M2556 1295 c-9 -26 -7 -32 5 -12 6 10 9 21 6 23 -2 3 -7 -2 -11 -11z"/>
<path d="M2534 1239 c-1 -15 3 -26 7 -23 11 6 12 41 2 47 -5 3 -8 -8 -9 -24z"/>
<path d="M2555 1209 c-4 -6 -5 -12 -2 -15 2 -3 7 2 10 11 7 17 1 20 -8 4z"/>
<path d="M2577 1195 c-4 -8 -1 -17 6 -21 7 -4 9 -4 5 1 -4 4 -3 14 3 22 7 8 8
13 1 13 -5 0 -12 -7 -15 -15z"/>
<path d="M13 1165 c0 -8 4 -12 9 -9 5 3 6 10 3 15 -9 13 -12 11 -12 -6z"/>
<path d="M2573 1118 c-1 -11 1 -16 5 -12 4 5 11 12 15 15 5 3 2 9 -5 12 -9 3
-14 -3 -15 -15z"/>
<path d="M2515 1110 c-3 -6 1 -7 9 -4 18 7 21 14 7 14 -6 0 -13 -4 -16 -10z"/>
<path d="M30 1097 c0 -2 6 -10 14 -16 11 -9 16 -9 22 1 4 7 4 10 -1 6 -4 -4
-14 -3 -22 3 -7 6 -13 9 -13 6z"/>
<path d="M2515 1080 c-8 -13 4 -32 15 -25 5 3 11 -2 13 -10 3 -11 4 -10 3 2
-1 10 -8 17 -14 16 -16 -4 -15 14 1 20 9 4 9 6 0 6 -6 1 -15 -3 -18 -9z"/>
<path d="M56 1039 c4 -8 30 -6 38 2 3 3 -5 5 -19 5 -13 0 -22 -3 -19 -7z"/>
<path d="M2533 1006 c-9 -11 -9 -15 0 -19 7 -3 14 3 14 14 2 22 2 22 -14 5z"/>
<path d="M2485 980 c-3 -5 -2 -10 4 -10 5 0 13 5 16 10 3 6 2 10 -4 10 -5 0
-13 -4 -16 -10z"/>
<path d="M2545 959 c-3 -4 2 -6 10 -5 21 3 28 13 10 13 -9 0 -18 -4 -20 -8z"/>
<path d="M50 939 c0 -5 5 -7 10 -4 6 3 10 8 10 11 0 2 -4 4 -10 4 -5 0 -10 -5
-10 -11z"/>
<path d="M2515 939 c-4 -6 -5 -12 -2 -15 2 -3 7 2 10 11 7 17 1 20 -8 4z"/>
<path d="M90 921 c0 -6 4 -13 10 -16 6 -3 7 1 4 9 -7 18 -14 21 -14 7z"/>
<path d="M2494 917 c5 -15 2 -17 -14 -12 -11 4 -20 3 -20 -2 0 -11 38 -14 44
-4 3 4 0 13 -6 21 -8 12 -9 11 -4 -3z"/>
<path d="M2510 885 c0 -5 5 -17 10 -25 5 -8 10 -10 10 -5 0 6 -5 17 -10 25 -5
8 -10 11 -10 5z"/>
<path d="M2554 849 c-3 -6 -2 -15 3 -20 5 -5 9 -1 9 11 0 23 -2 24 -12 9z"/>
<path d="M2480 846 c0 -2 8 -10 18 -17 15 -13 16 -12 3 4 -13 16 -21 21 -21
13z"/>
<path d="M2468 803 c7 -3 16 -2 19 1 4 3 -2 6 -13 5 -11 0 -14 -3 -6 -6z"/>
<path d="M2546 802 c-3 -5 1 -9 9 -9 8 0 12 4 9 9 -3 4 -7 8 -9 8 -2 0 -6 -4
-9 -8z"/>
<path d="M160 791 c0 -6 4 -13 10 -16 6 -3 7 1 4 9 -7 18 -14 21 -14 7z"/>
<path d="M2478 783 c7 -3 16 -2 19 1 4 3 -2 6 -13 5 -11 0 -14 -3 -6 -6z"/>
<path d="M136 753 c-6 -14 -5 -15 5 -6 7 7 10 15 7 18 -3 3 -9 -2 -12 -12z"/>
<path d="M2422 761 c-11 -7 -11 -9 1 -14 16 -6 27 0 27 15 0 10 -11 10 -28 -1z"/>
<path d="M195 741 c-3 -5 -2 -12 3 -15 5 -3 9 1 9 9 0 17 -3 19 -12 6z"/>
<path d="M2381 705 c-29 -50 -26 -58 5 -12 14 21 24 41 21 43 -2 3 -14 -11
-26 -31z"/>
<path d="M2414 702 c4 -7 3 -12 -3 -12 -6 0 -15 -10 -21 -22 -10 -20 -9 -21 2
-8 8 8 20 20 27 26 10 9 10 13 0 19 -8 5 -10 4 -5 -3z"/>
<path d="M2453 685 c0 -8 4 -12 9 -9 5 3 6 10 3 15 -9 13 -12 11 -12 -6z"/>
<path d="M170 666 c0 -2 7 -7 16 -10 8 -3 12 -2 9 4 -6 10 -25 14 -25 6z"/>
<path d="M216 638 c3 -5 10 -6 15 -3 13 9 11 12 -6 12 -8 0 -12 -4 -9 -9z"/>
<path d="M2335 620 c3 -5 8 -10 11 -10 2 0 4 5 4 10 0 6 -5 10 -11 10 -5 0 -7
-4 -4 -10z"/>
<path d="M2450 619 c0 -5 5 -7 10 -4 6 3 10 8 10 11 0 2 -4 4 -10 4 -5 0 -10
-5 -10 -11z"/>
<path d="M2360 611 c0 -6 4 -13 10 -16 6 -3 7 1 4 9 -7 18 -14 21 -14 7z"/>
<path d="M2320 600 c0 -5 5 -10 11 -10 5 0 7 5 4 10 -3 6 -8 10 -11 10 -2 0
-4 -4 -4 -10z"/>
<path d="M2395 571 c-3 -5 -2 -12 3 -15 5 -3 9 1 9 9 0 17 -3 19 -12 6z"/>
<path d="M2299 563 c-1 -5 -1 -12 0 -17 1 -5 -6 -5 -16 -2 -14 6 -15 4 -6 -5
13 -13 36 -3 27 13 -5 7 2 9 19 6 15 -3 24 -1 21 3 -6 11 -44 12 -45 2z"/>
<path d="M266 522 c-2 -4 4 -8 14 -8 10 0 16 4 14 8 -3 4 -9 8 -14 8 -5 0 -11
-4 -14 -8z"/>
<path d="M2257 523 c-4 -6 0 -13 8 -17 8 -3 17 0 21 6 4 6 3 8 -4 4 -5 -3 -12
-1 -14 6 -3 8 -6 9 -11 1z"/>
<path d="M2293 496 c-3 -5 -1 -6 5 -2 16 10 15 -6 0 -24 -7 -8 -1 -4 15 9 15
14 27 25 27 26 0 6 -43 -2 -47 -9z"/>
<path d="M2215 475 l-30 -25 32 17 c18 10 33 21 33 26 0 10 -2 9 -35 -18z"/>
<path d="M2350 481 c0 -6 4 -13 10 -16 6 -3 7 1 4 9 -7 18 -14 21 -14 7z"/>
<path d="M2426 478 c3 -5 10 -6 15 -3 13 9 11 12 -6 12 -8 0 -12 -4 -9 -9z"/>
<path d="M355 461 c-3 -5 -2 -12 3 -15 5 -3 9 1 9 9 0 17 -3 19 -12 6z"/>
<path d="M2230 450 c0 -6 7 -10 15 -10 8 0 15 2 15 4 0 2 -7 6 -15 10 -8 3
-15 1 -15 -4z"/>
<path d="M2294 442 c4 -3 14 -7 22 -8 9 -1 13 0 10 4 -4 3 -14 7 -22 8 -9 1
-13 0 -10 -4z"/>
<path d="M394 414 c-1 -13 1 -24 5 -24 9 0 12 38 3 44 -4 2 -8 -7 -8 -20z"/>
<path d="M2180 431 c0 -7 -5 -9 -12 -5 -7 5 -8 3 -3 -5 5 -9 10 -10 18 -2 6 6
8 14 4 18 -4 3 -7 1 -7 -6z"/>
<path d="M2270 431 c0 -6 4 -13 10 -16 6 -3 7 1 4 9 -7 18 -14 21 -14 7z"/>
<path d="M2214 415 c-4 -8 -11 -12 -17 -8 -6 3 -7 1 -3 -5 10 -16 14 -15 26 8
6 11 8 20 5 20 -3 0 -8 -7 -11 -15z"/>
<path d="M2137 395 c-8 -18 11 -31 25 -17 11 11 3 32 -12 32 -4 0 -10 -7 -13
-15z m23 -5 c0 -5 -5 -10 -11 -10 -5 0 -7 5 -4 10 3 6 8 10 11 10 2 0 4 -4 4
-10z"/>
<path d="M2233 403 c4 -3 1 -13 -6 -22 -11 -14 -10 -14 5 -2 16 12 16 31 1 31
-4 0 -3 -3 0 -7z"/>
<path d="M435 382 c3 -3 -1 -12 -7 -21 -8 -10 -4 -9 10 3 26 23 26 23 7 23 -8
0 -13 -3 -10 -5z"/>
<path d="M2116 367 c3 -10 9 -15 12 -12 3 3 0 11 -7 18 -10 9 -11 8 -5 -6z"/>
<path d="M2195 369 c-4 -6 -5 -12 -2 -15 2 -3 7 2 10 11 7 17 1 20 -8 4z"/>
<path d="M456 362 c-3 -5 1 -9 9 -9 8 0 12 4 9 9 -3 4 -7 8 -9 8 -2 0 -6 -4
-9 -8z"/>
<path d="M2085 350 c-3 -6 1 -7 9 -4 18 7 21 14 7 14 -6 0 -13 -4 -16 -10z"/>
<path d="M530 331 c0 -6 4 -13 10 -16 6 -3 7 1 4 9 -7 18 -14 21 -14 7z"/>
<path d="M2111 324 c0 -11 3 -14 6 -6 3 7 2 16 -1 19 -3 4 -6 -2 -5 -13z"/>
<path d="M2141 317 c-13 -21 -12 -21 5 -5 10 10 16 20 13 22 -3 3 -11 -5 -18
-17z"/>
<path d="M513 307 c0 -8 6 -14 14 -14 9 0 10 4 2 14 -6 7 -12 13 -14 13 -1 0
-2 -6 -2 -13z"/>
<path d="M2092 305 c4 -4 3 -14 -4 -22 -6 -7 -9 -15 -7 -18 3 -2 10 4 17 15 9
15 9 21 -1 26 -6 4 -9 4 -5 -1z"/>
<path d="M579 298 c-5 -18 -6 -38 -1 -34 7 8 12 36 6 36 -2 0 -4 -1 -5 -2z"/>
<path d="M2114 268 l-19 -23 23 19 c12 11 22 21 22 23 0 8 -8 2 -26 -19z"/>
<path d="M1987 264 c3 -7 9 -14 14 -14 14 0 10 17 -5 23 -10 4 -13 1 -9 -9z"/>
<path d="M596 253 c-6 -14 -5 -15 5 -6 7 7 10 15 7 18 -3 3 -9 -2 -12 -12z"/>
<path d="M655 239 c-4 -6 -5 -12 -2 -15 2 -3 7 2 10 11 7 17 1 20 -8 4z"/>
<path d="M1940 240 c-18 -12 -2 -12 25 0 13 6 15 9 5 9 -8 0 -22 -4 -30 -9z"/>
<path d="M2015 239 c-4 -6 -4 -13 -1 -16 3 -4 6 -1 6 6 0 7 5 9 12 5 7 -4 8
-3 4 4 -9 15 -13 15 -21 1z"/>
<path d="M2115 231 c-3 -5 -2 -12 3 -15 5 -3 9 1 9 9 0 17 -3 19 -12 6z"/>
<path d="M2040 215 c-7 -8 -17 -12 -23 -8 -6 4 -7 1 -3 -6 6 -9 13 -8 27 5 10
9 19 19 19 21 0 7 -8 2 -20 -12z"/>
<path d="M713 209 c3 -9 0 -22 -6 -29 -8 -9 -5 -8 10 1 12 7 19 16 15 19 -4 3
-11 10 -16 15 -6 6 -7 4 -3 -6z"/>
<path d="M1900 216 c0 -2 7 -6 15 -10 8 -3 15 -1 15 4 0 6 -7 10 -15 10 -8 0
-15 -2 -15 -4z"/>
<path d="M1951 204 c0 -11 3 -14 6 -6 3 7 2 16 -1 19 -3 4 -6 -2 -5 -13z"/>
<path d="M654 194 c1 -7 6 -17 10 -21 4 -4 6 -1 4 7 -2 9 3 14 12 12 8 -2 11
0 7 4 -13 14 -35 12 -33 -2z"/>
<path d="M1809 188 c-5 -18 -6 -38 -1 -34 7 8 12 36 6 36 -2 0 -4 -1 -5 -2z"/>
<path d="M1895 180 c-3 -6 1 -7 9 -4 18 7 21 14 7 14 -6 0 -13 -4 -16 -10z"/>
<path d="M773 161 c0 -11 5 -18 9 -15 4 3 5 11 1 19 -7 21 -12 19 -10 -4z"/>
<path d="M1830 170 c0 -5 5 -10 10 -10 6 0 10 5 10 10 0 6 -4 10 -10 10 -5 0
-10 -4 -10 -10z"/>
<path d="M1872 156 c1 -15 9 -33 17 -39 12 -10 13 -9 6 3 -5 8 -11 24 -12 34
-5 31 -13 32 -11 2z"/>
<path d="M2070 176 c0 -2 8 -10 18 -17 15 -13 16 -12 3 4 -13 16 -21 21 -21
13z"/>
<path d="M1777 153 c5 -12 3 -14 -7 -8 -9 5 -11 4 -6 -4 4 -6 12 -9 17 -6 12
8 12 35 -1 35 -5 0 -6 -7 -3 -17z"/>
<path d="M815 140 c3 -5 -1 -10 -9 -10 -9 0 -16 -5 -16 -10 0 -7 7 -7 20 0 17
9 20 30 4 30 -3 0 -2 -4 1 -10z"/>
<path d="M854 139 c-3 -6 -1 -16 5 -22 9 -9 11 -8 5 6 -5 13 -2 16 10 11 9 -3
16 -4 16 -1 0 11 -30 16 -36 6z"/>
<path d="M1815 139 c-4 -6 -4 -13 -1 -16 3 -4 6 -1 6 6 0 7 5 9 12 5 7 -4 8
-3 4 4 -9 15 -13 15 -21 1z"/>
<path d="M897 121 c-3 -13 -1 -18 9 -14 7 2 10 11 7 19 -7 19 -10 18 -16 -5z"/>
<path d="M736 119 c4 -8 30 -6 38 2 3 3 -5 5 -19 5 -13 0 -22 -3 -19 -7z"/>
<path d="M1750 121 c0 -5 7 -15 17 -22 15 -13 15 -12 4 9 -12 23 -21 28 -21
13z"/>
<path d="M1919 113 c-13 -16 -12 -17 4 -4 16 13 21 21 13 21 -2 0 -10 -8 -17
-17z"/>
<path d="M950 112 c0 -8 -5 -10 -12 -6 -7 4 -10 4 -6 0 3 -4 10 -8 15 -8 4 -1
13 -8 19 -16 9 -13 12 -13 19 -1 5 8 4 10 0 6 -5 -4 -15 3 -22 15 -7 13 -12
17 -13 10z"/>
<path d="M1654 112 c3 -6 -2 -13 -11 -15 -16 -4 -16 -5 -1 -6 21 -1 32 15 17
25 -7 4 -9 3 -5 -4z"/>
<path d="M1608 83 c5 -21 7 -23 10 -9 2 10 0 22 -6 28 -6 6 -7 0 -4 -19z"/>
<path d="M916 87 c3 -10 9 -15 12 -12 3 3 0 11 -7 18 -10 9 -11 8 -5 -6z"/>
<path d="M1525 85 c-16 -8 -23 -14 -15 -14 8 0 26 6 40 14 32 18 15 18 -25 0z"/>
<path d="M1715 70 c-1 -34 8 -31 12 5 2 14 0 25 -4 25 -5 0 -8 -13 -8 -30z"/>
<path d="M875 81 c-3 -5 -2 -12 3 -15 5 -3 9 1 9 9 0 17 -3 19 -12 6z"/>
<path d="M1010 75 c0 -8 2 -15 4 -15 2 0 6 7 10 15 3 8 1 15 -4 15 -6 0 -10
-7 -10 -15z"/>
<path d="M1660 80 c-8 -5 -10 -10 -5 -10 6 0 17 5 25 10 8 5 11 10 5 10 -5 0
-17 -5 -25 -10z"/>
<path d="M1144 59 c-4 -7 -3 -9 4 -5 6 3 13 -2 15 -11 4 -16 5 -16 6 -1 1 21
-15 32 -25 17z"/>
<path d="M1372 58 c-15 -15 -15 -28 -1 -28 5 0 8 4 5 9 -4 5 0 11 6 14 7 2 10
7 7 10 -3 4 -11 1 -17 -5z"/>
<path d="M1535 61 c-3 -5 0 -13 6 -17 8 -5 9 -3 4 6 -6 10 -4 12 8 7 10 -3 17
-2 17 3 0 13 -27 13 -35 1z"/>
<path d="M1064 42 c-9 -14 -8 -18 6 -18 11 0 15 6 12 18 -2 10 -5 18 -6 18 -1
0 -6 -8 -12 -18z"/>
<path d="M1217 46 c-4 -10 -3 -15 3 -11 6 3 10 1 10 -6 0 -7 3 -10 6 -6 3 3 2
13 -4 22 -8 16 -9 16 -15 1z"/>
<path d="M1251 44 c0 -11 3 -14 6 -6 3 7 2 16 -1 19 -3 4 -6 -2 -5 -13z"/>
<path d="M916 42 c-3 -5 1 -9 9 -9 8 0 12 4 9 9 -3 4 -7 8 -9 8 -2 0 -6 -4 -9
-8z"/>
<path d="M996 39 c4 -8 30 -6 38 2 3 3 -5 5 -19 5 -13 0 -22 -3 -19 -7z"/>
<path d="M1291 33 c0 -11 3 -13 6 -5 2 6 10 9 15 6 7 -4 8 -2 4 4 -11 18 -26
14 -25 -5z"/>
<path d="M1420 42 c0 -4 10 -13 23 -21 22 -14 22 -14 3 8 -20 22 -26 25 -26
13z"/>
<path d="M1109 23 c-13 -16 -12 -17 3 -5 9 8 23 10 29 6 8 -4 9 -3 5 4 -10 17
-21 15 -37 -5z"/>
<path d="M1514 26 c1 -8 5 -18 8 -22 4 -3 5 1 4 10 -1 8 -5 18 -8 22 -4 3 -5
-1 -4 -10z"/>
<path d="M1270 21 c0 -6 4 -13 10 -16 6 -3 7 1 4 9 -7 18 -14 21 -14 7z"/>
<path d="M1476 22 c-3 -5 1 -9 9 -9 8 0 12 4 9 9 -7 10 -11 10 -18 0z"/>
<path d="M1547 19 c7 -7 15 -10 18 -7 3 3 -2 9 -12 12 -14 6 -15 5 -6 -5z"/>
<path d="M1690 19 c0 -5 5 -7 10 -4 6 3 10 8 10 11 0 2 -4 4 -10 4 -5 0 -10
-5 -10 -11z"/>
<path d="M1726 22 c-3 -5 1 -9 9 -9 8 0 12 4 9 9 -7 10 -11 10 -18 0z"/>
</g>
</svg>
